<svg width="1728" height="1302" viewBox="0 0 1728 1302" fill="none" xmlns="http://www.w3.org/2000/svg">
<g opacity="0.3">
<path opacity="0.2" fill-rule="evenodd" clip-rule="evenodd" d="M1624.86 694.453C1605.33 711.99 1582.42 725.086 1556.66 732.439C1444.12 764.574 1319.83 674.873 1279.06 532.087C1254.82 447.203 1265.56 362.667 1301.9 301.313C1236.09 360.41 1208.68 469.937 1240.12 580.049C1280.89 722.835 1405.18 812.535 1517.73 780.401C1563.37 767.369 1600.07 736.305 1624.86 694.453Z" fill="white"/>
<g filter="url(#filter0_ii_181_27775)">
<ellipse cx="1479.65" cy="472.451" rx="211.932" ry="268.868" transform="rotate(-15.935 1479.65 472.451)" fill="#D7D8D7"/>
</g>
<path opacity="0.2" fill-rule="evenodd" clip-rule="evenodd" d="M1160.28 609.594C1143.5 624.07 1124.03 634.905 1102.29 641.113C1001.5 669.891 889.853 588.363 852.922 459.015C831.228 383.033 840.141 307.451 871.62 252.185C810.612 304.807 785.02 405.534 813.983 506.975C850.914 636.323 962.559 717.851 1063.35 689.074C1104.93 677.201 1138.17 648.408 1160.28 609.594Z" fill="white"/>
<g filter="url(#filter1_ii_181_27775)">
<ellipse cx="1032.22" cy="405.459" rx="189.789" ry="243.563" transform="rotate(-15.935 1032.22 405.459)" fill="#D7D8D7"/>
</g>
<path opacity="0.2" fill-rule="evenodd" clip-rule="evenodd" d="M766.517 726.198C754.187 735.868 740.201 743.179 724.781 747.582C644.149 770.604 554.833 705.381 525.288 601.903C508.675 543.717 514.498 485.824 537.115 442.2C484.973 483.095 462.454 566.175 486.349 649.864C515.893 753.342 605.209 818.564 685.842 795.542C721.134 785.466 748.912 760.154 766.517 726.198Z" fill="white"/>
<g filter="url(#filter2_ii_181_27775)">
<ellipse cx="668.084" cy="558.768" rx="151.832" ry="194.851" transform="rotate(-15.935 668.084 558.768)" fill="#D7D8D7"/>
</g>
<path opacity="0.2" fill-rule="evenodd" clip-rule="evenodd" d="M471.5 891.675C462.253 898.928 451.764 904.411 440.199 907.713C379.725 924.98 312.738 876.063 290.579 798.454C278.119 754.814 282.487 711.395 299.449 678.677C260.343 709.348 243.454 771.658 261.375 834.424C283.533 912.033 350.52 960.95 410.994 943.683C437.463 936.126 458.297 917.142 471.5 891.675Z" fill="white"/>
<g filter="url(#filter3_ii_181_27775)">
<ellipse cx="397.676" cy="766.103" rx="113.874" ry="146.138" transform="rotate(-15.935 397.676 766.103)" fill="#D7D8D7"/>
</g>
<path opacity="0.2" fill-rule="evenodd" clip-rule="evenodd" d="M296.104 1075.35C289.169 1080.79 281.302 1084.9 272.628 1087.38C227.272 1100.33 177.032 1063.64 160.413 1005.43C151.068 972.704 154.344 940.14 167.065 915.601C137.736 938.604 125.069 985.337 138.51 1032.41C155.129 1090.62 205.369 1127.31 250.724 1114.36C270.576 1108.69 286.202 1094.45 296.104 1075.35Z" fill="white"/>
<g filter="url(#filter4_ii_181_27775)">
<ellipse cx="240.736" cy="981.17" rx="85.4053" ry="109.603" transform="rotate(-15.935 240.736 981.17)" fill="#D7D8D7"/>
</g>
<path opacity="0.2" fill-rule="evenodd" clip-rule="evenodd" d="M177.432 1229.51C172.23 1233.59 166.33 1236.68 159.824 1238.53C125.808 1248.25 88.1275 1220.73 75.6633 1177.08C68.6546 1152.53 71.1113 1128.11 80.6527 1109.7C58.6555 1126.95 49.1552 1162 59.2357 1197.31C71.6999 1240.96 109.38 1268.48 143.397 1258.77C158.285 1254.52 170.005 1243.84 177.432 1229.51Z" fill="white"/>
<g filter="url(#filter5_ii_181_27775)">
<ellipse cx="135.905" cy="1158.88" rx="64.054" ry="82.2026" transform="rotate(-15.935 135.905 1158.88)" fill="#D7D8D7"/>
</g>
<path opacity="0.2" fill-rule="evenodd" clip-rule="evenodd" d="M83.9466 1339.01C80.0455 1342.07 75.6202 1344.38 70.7412 1345.77C45.2287 1353.06 16.9686 1332.42 7.62043 1299.68C2.36388 1281.27 4.20646 1262.95 11.3625 1249.15C-5.13542 1262.09 -12.2606 1288.37 -4.70024 1314.85C4.6479 1347.59 32.908 1368.23 58.4205 1360.95C69.5871 1357.76 78.3765 1349.75 83.9466 1339.01Z" fill="white"/>
<g filter="url(#filter6_ii_181_27775)">
<ellipse cx="52.8019" cy="1286.03" rx="48.0405" ry="61.6519" transform="rotate(-15.935 52.8019 1286.03)" fill="#D7D8D7"/>
</g>
</g>
<defs>
<filter id="filter0_ii_181_27775" x="1262.84" y="202.704" width="433.608" height="546.523" filterUnits="userSpaceOnUse" color-interpolation-filters="sRGB">
<feFlood flood-opacity="0" result="BackgroundImageFix"/>
<feBlend mode="normal" in="SourceGraphic" in2="BackgroundImageFix" result="shape"/>
<feColorMatrix in="SourceAlpha" type="matrix" values="0 0 0 0 0 0 0 0 0 0 0 0 0 0 0 0 0 0 127 0" result="hardAlpha"/>
<feOffset dy="14.0584"/>
<feGaussianBlur stdDeviation="5.85768"/>
<feComposite in2="hardAlpha" operator="arithmetic" k2="-1" k3="1"/>
<feColorMatrix type="matrix" values="0 0 0 0 1 0 0 0 0 1 0 0 0 0 1 0 0 0 1 0"/>
<feBlend mode="soft-light" in2="shape" result="effect1_innerShadow_181_27775"/>
<feColorMatrix in="SourceAlpha" type="matrix" values="0 0 0 0 0 0 0 0 0 0 0 0 0 0 0 0 0 0 127 0" result="hardAlpha"/>
<feOffset dy="-14.0584"/>
<feGaussianBlur stdDeviation="2.34307"/>
<feComposite in2="hardAlpha" operator="arithmetic" k2="-1" k3="1"/>
<feColorMatrix type="matrix" values="0 0 0 0 0 0 0 0 0 0 0 0 0 0 0 0 0 0 1 0"/>
<feBlend mode="overlay" in2="effect1_innerShadow_181_27775" result="effect2_innerShadow_181_27775"/>
</filter>
<filter id="filter1_ii_181_27775" x="837.802" y="160.791" width="388.83" height="496.365" filterUnits="userSpaceOnUse" color-interpolation-filters="sRGB">
<feFlood flood-opacity="0" result="BackgroundImageFix"/>
<feBlend mode="normal" in="SourceGraphic" in2="BackgroundImageFix" result="shape"/>
<feColorMatrix in="SourceAlpha" type="matrix" values="0 0 0 0 0 0 0 0 0 0 0 0 0 0 0 0 0 0 127 0" result="hardAlpha"/>
<feOffset dy="14.0584"/>
<feGaussianBlur stdDeviation="5.85768"/>
<feComposite in2="hardAlpha" operator="arithmetic" k2="-1" k3="1"/>
<feColorMatrix type="matrix" values="0 0 0 0 1 0 0 0 0 1 0 0 0 0 1 0 0 0 1 0"/>
<feBlend mode="soft-light" in2="shape" result="effect1_innerShadow_181_27775"/>
<feColorMatrix in="SourceAlpha" type="matrix" values="0 0 0 0 0 0 0 0 0 0 0 0 0 0 0 0 0 0 127 0" result="hardAlpha"/>
<feOffset dy="-14.0584"/>
<feGaussianBlur stdDeviation="2.34307"/>
<feComposite in2="hardAlpha" operator="arithmetic" k2="-1" k3="1"/>
<feColorMatrix type="matrix" values="0 0 0 0 0 0 0 0 0 0 0 0 0 0 0 0 0 0 1 0"/>
<feBlend mode="overlay" in2="effect1_innerShadow_181_27775" result="effect2_innerShadow_181_27775"/>
</filter>
<filter id="filter2_ii_181_27775" x="512.552" y="362.096" width="311.064" height="400.373" filterUnits="userSpaceOnUse" color-interpolation-filters="sRGB">
<feFlood flood-opacity="0" result="BackgroundImageFix"/>
<feBlend mode="normal" in="SourceGraphic" in2="BackgroundImageFix" result="shape"/>
<feColorMatrix in="SourceAlpha" type="matrix" values="0 0 0 0 0 0 0 0 0 0 0 0 0 0 0 0 0 0 127 0" result="hardAlpha"/>
<feOffset dy="14.0584"/>
<feGaussianBlur stdDeviation="5.85768"/>
<feComposite in2="hardAlpha" operator="arithmetic" k2="-1" k3="1"/>
<feColorMatrix type="matrix" values="0 0 0 0 1 0 0 0 0 1 0 0 0 0 1 0 0 0 1 0"/>
<feBlend mode="soft-light" in2="shape" result="effect1_innerShadow_181_27775"/>
<feColorMatrix in="SourceAlpha" type="matrix" values="0 0 0 0 0 0 0 0 0 0 0 0 0 0 0 0 0 0 127 0" result="hardAlpha"/>
<feOffset dy="-14.0584"/>
<feGaussianBlur stdDeviation="2.34307"/>
<feComposite in2="hardAlpha" operator="arithmetic" k2="-1" k3="1"/>
<feColorMatrix type="matrix" values="0 0 0 0 0 0 0 0 0 0 0 0 0 0 0 0 0 0 1 0"/>
<feBlend mode="overlay" in2="effect1_innerShadow_181_27775" result="effect2_innerShadow_181_27775"/>
</filter>
<filter id="filter3_ii_181_27775" x="281.027" y="618.599" width="233.298" height="300.28" filterUnits="userSpaceOnUse" color-interpolation-filters="sRGB">
<feFlood flood-opacity="0" result="BackgroundImageFix"/>
<feBlend mode="normal" in="SourceGraphic" in2="BackgroundImageFix" result="shape"/>
<feColorMatrix in="SourceAlpha" type="matrix" values="0 0 0 0 0 0 0 0 0 0 0 0 0 0 0 0 0 0 127 0" result="hardAlpha"/>
<feOffset dy="10.5438"/>
<feGaussianBlur stdDeviation="4.39326"/>
<feComposite in2="hardAlpha" operator="arithmetic" k2="-1" k3="1"/>
<feColorMatrix type="matrix" values="0 0 0 0 1 0 0 0 0 1 0 0 0 0 1 0 0 0 1 0"/>
<feBlend mode="soft-light" in2="shape" result="effect1_innerShadow_181_27775"/>
<feColorMatrix in="SourceAlpha" type="matrix" values="0 0 0 0 0 0 0 0 0 0 0 0 0 0 0 0 0 0 127 0" result="hardAlpha"/>
<feOffset dy="-10.5438"/>
<feGaussianBlur stdDeviation="1.7573"/>
<feComposite in2="hardAlpha" operator="arithmetic" k2="-1" k3="1"/>
<feColorMatrix type="matrix" values="0 0 0 0 0 0 0 0 0 0 0 0 0 0 0 0 0 0 1 0"/>
<feBlend mode="overlay" in2="effect1_innerShadow_181_27775" result="effect2_innerShadow_181_27775"/>
</filter>
<filter id="filter4_ii_181_27775" x="153.249" y="870.542" width="174.973" height="225.21" filterUnits="userSpaceOnUse" color-interpolation-filters="sRGB">
<feFlood flood-opacity="0" result="BackgroundImageFix"/>
<feBlend mode="normal" in="SourceGraphic" in2="BackgroundImageFix" result="shape"/>
<feColorMatrix in="SourceAlpha" type="matrix" values="0 0 0 0 0 0 0 0 0 0 0 0 0 0 0 0 0 0 127 0" result="hardAlpha"/>
<feOffset dy="7.90787"/>
<feGaussianBlur stdDeviation="3.29494"/>
<feComposite in2="hardAlpha" operator="arithmetic" k2="-1" k3="1"/>
<feColorMatrix type="matrix" values="0 0 0 0 1 0 0 0 0 1 0 0 0 0 1 0 0 0 1 0"/>
<feBlend mode="soft-light" in2="shape" result="effect1_innerShadow_181_27775"/>
<feColorMatrix in="SourceAlpha" type="matrix" values="0 0 0 0 0 0 0 0 0 0 0 0 0 0 0 0 0 0 127 0" result="hardAlpha"/>
<feOffset dy="-7.90787"/>
<feGaussianBlur stdDeviation="1.31798"/>
<feComposite in2="hardAlpha" operator="arithmetic" k2="-1" k3="1"/>
<feColorMatrix type="matrix" values="0 0 0 0 0 0 0 0 0 0 0 0 0 0 0 0 0 0 1 0"/>
<feBlend mode="overlay" in2="effect1_innerShadow_181_27775" result="effect2_innerShadow_181_27775"/>
</filter>
<filter id="filter5_ii_181_27775" x="70.2903" y="1075.91" width="131.23" height="168.907" filterUnits="userSpaceOnUse" color-interpolation-filters="sRGB">
<feFlood flood-opacity="0" result="BackgroundImageFix"/>
<feBlend mode="normal" in="SourceGraphic" in2="BackgroundImageFix" result="shape"/>
<feColorMatrix in="SourceAlpha" type="matrix" values="0 0 0 0 0 0 0 0 0 0 0 0 0 0 0 0 0 0 127 0" result="hardAlpha"/>
<feOffset dy="5.9309"/>
<feGaussianBlur stdDeviation="2.47121"/>
<feComposite in2="hardAlpha" operator="arithmetic" k2="-1" k3="1"/>
<feColorMatrix type="matrix" values="0 0 0 0 1 0 0 0 0 1 0 0 0 0 1 0 0 0 1 0"/>
<feBlend mode="soft-light" in2="shape" result="effect1_innerShadow_181_27775"/>
<feColorMatrix in="SourceAlpha" type="matrix" values="0 0 0 0 0 0 0 0 0 0 0 0 0 0 0 0 0 0 127 0" result="hardAlpha"/>
<feOffset dy="-5.9309"/>
<feGaussianBlur stdDeviation="0.988483"/>
<feComposite in2="hardAlpha" operator="arithmetic" k2="-1" k3="1"/>
<feColorMatrix type="matrix" values="0 0 0 0 0 0 0 0 0 0 0 0 0 0 0 0 0 0 1 0"/>
<feBlend mode="overlay" in2="effect1_innerShadow_181_27775" result="effect2_innerShadow_181_27775"/>
</filter>
<filter id="filter6_ii_181_27775" x="3.5907" y="1223.8" width="98.4225" height="126.68" filterUnits="userSpaceOnUse" color-interpolation-filters="sRGB">
<feFlood flood-opacity="0" result="BackgroundImageFix"/>
<feBlend mode="normal" in="SourceGraphic" in2="BackgroundImageFix" result="shape"/>
<feColorMatrix in="SourceAlpha" type="matrix" values="0 0 0 0 0 0 0 0 0 0 0 0 0 0 0 0 0 0 127 0" result="hardAlpha"/>
<feOffset dy="4.44817"/>
<feGaussianBlur stdDeviation="1.85341"/>
<feComposite in2="hardAlpha" operator="arithmetic" k2="-1" k3="1"/>
<feColorMatrix type="matrix" values="0 0 0 0 1 0 0 0 0 1 0 0 0 0 1 0 0 0 1 0"/>
<feBlend mode="soft-light" in2="shape" result="effect1_innerShadow_181_27775"/>
<feColorMatrix in="SourceAlpha" type="matrix" values="0 0 0 0 0 0 0 0 0 0 0 0 0 0 0 0 0 0 127 0" result="hardAlpha"/>
<feOffset dy="-4.44817"/>
<feGaussianBlur stdDeviation="0.741362"/>
<feComposite in2="hardAlpha" operator="arithmetic" k2="-1" k3="1"/>
<feColorMatrix type="matrix" values="0 0 0 0 0 0 0 0 0 0 0 0 0 0 0 0 0 0 1 0"/>
<feBlend mode="overlay" in2="effect1_innerShadow_181_27775" result="effect2_innerShadow_181_27775"/>
</filter>
</defs>
</svg>
