<svg width="70" height="71" viewBox="0 0 70 71" fill="none" xmlns="http://www.w3.org/2000/svg">
<path d="M52.5003 27.4795V30.8128M52.5003 27.4795C49.5481 27.4795 46.9473 26.0064 45.4216 23.7696M52.5003 27.4795C55.4526 27.4795 58.0534 26.0064 59.5791 23.7696M45.4216 23.7696L42.2932 25.8128M45.4216 23.7696C44.5195 22.4466 43.9933 20.8566 43.9933 19.1462C43.9933 17.4359 44.5192 15.8461 45.4213 14.5232M59.5791 23.7696L62.7075 25.8128M59.5791 23.7696C60.4812 22.4466 61.0074 20.8566 61.0074 19.1462C61.0074 17.4359 60.4815 15.8461 59.5794 14.5232M52.5003 10.8128C55.4529 10.8128 58.0539 12.2862 59.5794 14.5232M52.5003 10.8128C49.5478 10.8128 46.9467 12.2862 45.4213 14.5232M52.5003 10.8128V7.47949M59.5794 14.5232L62.7087 12.4795M45.4213 14.5232L42.292 12.4795" stroke="white" stroke-width="4" stroke-linecap="round"/>
<path d="M5.83374 17.6872C5.83374 13.6035 5.83374 11.5616 6.62847 10.0018C7.32757 8.62982 8.44305 7.51434 9.81505 6.81524C11.3748 6.02051 13.4167 6.02051 17.5004 6.02051C21.5841 6.02051 23.626 6.02051 25.1858 6.81524C26.5578 7.51434 27.6732 8.62982 28.3723 10.0018C29.1671 11.5616 29.1671 13.6035 29.1671 17.6872C29.1671 21.7709 29.1671 23.8128 28.3723 25.3725C27.6732 26.7445 26.5578 27.86 25.1858 28.5591C23.626 29.3538 21.5841 29.3538 17.5004 29.3538C13.4167 29.3538 11.3748 29.3538 9.81505 28.5591C8.44305 27.86 7.32757 26.7445 6.62847 25.3725C5.83374 23.8128 5.83374 21.7709 5.83374 17.6872Z" stroke="white" stroke-width="4"/>
<path d="M5.83374 52.6872C5.83374 48.6035 5.83374 46.5616 6.62847 45.0018C7.32757 43.6298 8.44305 42.5144 9.81505 41.8153C11.3748 41.0205 13.4167 41.0205 17.5004 41.0205C21.5841 41.0205 23.626 41.0205 25.1858 41.8153C26.5578 42.5144 27.6732 43.6298 28.3723 45.0018C29.1671 46.5616 29.1671 48.6035 29.1671 52.6872C29.1671 56.7708 29.1671 58.8128 28.3723 60.3726C27.6732 61.7446 26.5578 62.8599 25.1858 63.5591C23.626 64.3538 21.5841 64.3538 17.5004 64.3538C13.4167 64.3538 11.3748 64.3538 9.81505 63.5591C8.44305 62.8599 7.32757 61.7446 6.62847 60.3726C5.83374 58.8128 5.83374 56.7708 5.83374 52.6872Z" stroke="white" stroke-width="4"/>
<path d="M40.8337 52.6872C40.8337 48.6035 40.8337 46.5616 41.6285 45.0018C42.3277 43.6298 43.443 42.5144 44.815 41.8153C46.3748 41.0205 48.4168 41.0205 52.5004 41.0205C56.584 41.0205 58.626 41.0205 60.1858 41.8153C61.5578 42.5144 62.6732 43.6298 63.3723 45.0018C64.1671 46.5616 64.1671 48.6035 64.1671 52.6872C64.1671 56.7708 64.1671 58.8128 63.3723 60.3726C62.6732 61.7446 61.5578 62.8599 60.1858 63.5591C58.626 64.3538 56.584 64.3538 52.5004 64.3538C48.4168 64.3538 46.3748 64.3538 44.815 63.5591C43.443 62.8599 42.3277 61.7446 41.6285 60.3726C40.8337 58.8128 40.8337 56.7708 40.8337 52.6872Z" stroke="white" stroke-width="4"/>
</svg>
