<svg width="70" height="71" viewBox="0 0 70 71" fill="none" xmlns="http://www.w3.org/2000/svg">
<path d="M47.4329 30.8101H22.567C15.0375 30.8101 11.2727 30.8101 9.54167 33.2968C7.81063 35.7836 9.0972 39.3436 11.6703 46.4638L14.8326 55.2138C16.1742 58.9261 16.8451 60.7826 18.3426 61.8378C19.8402 62.8934 21.8032 62.8934 25.7292 62.8934H44.2709C48.1968 62.8934 50.1597 62.8934 51.6574 61.8378C53.1548 60.7826 53.8256 58.9261 55.1676 55.2138L58.3295 46.4638C60.9029 39.3436 62.1895 35.7836 60.4584 33.2968C58.7274 30.8101 54.9625 30.8101 47.4329 30.8101Z" stroke="white" stroke-width="4" stroke-linecap="square"/>
<path d="M55.4165 23.5181C55.4165 22.1591 55.4165 21.4796 55.1945 20.9436C54.8985 20.2289 54.3306 19.6611 53.616 19.3651C53.0799 19.1431 52.4003 19.1431 51.0415 19.1431H18.9581C17.5991 19.1431 16.9196 19.1431 16.3836 19.3651C15.669 19.6611 15.1012 20.2289 14.8051 20.9436C14.5831 21.4796 14.5831 22.1591 14.5831 23.5181" stroke="white" stroke-width="4" stroke-linecap="round" stroke-linejoin="round"/>
<path d="M48.125 11.8521C48.125 10.4931 48.125 9.81356 47.903 9.27757C47.607 8.5629 47.0391 7.99508 46.3245 7.69907C45.7885 7.47705 45.1089 7.47705 43.75 7.47705H26.25C24.891 7.47705 24.2115 7.47705 23.6755 7.69907C22.9608 7.99508 22.393 8.5629 22.097 9.27757C21.875 9.81356 21.875 10.4931 21.875 11.8521" stroke="white" stroke-width="4" stroke-linecap="round" stroke-linejoin="round"/>
</svg>
