<svg width="70" height="71" viewBox="0 0 70 71" fill="none" xmlns="http://www.w3.org/2000/svg">
<path d="M47.9519 62.5769L49.5625 60.5638C50.9777 58.7949 53.983 58.9375 55.1786 60.8298C56.6165 63.1069 60.1684 62.6542 61.1533 60.5597C61.2047 60.451 61.0763 60.7234 61.186 59.781C61.2954 58.8386 61.2499 58.6234 61.1586 58.1932L55.5496 31.7078C54.1399 25.0515 53.435 21.7233 51.0103 19.7679C48.586 17.8125 45.1639 17.8125 38.3202 17.8125H31.6795C24.8358 17.8125 21.4139 17.8125 18.9893 19.7679C16.5647 21.7233 15.8599 25.0515 14.4502 31.7078L8.84117 58.1932C8.75 58.6234 8.70441 58.8386 8.81387 59.781C8.92331 60.7234 8.79521 60.451 8.84642 60.5597C9.8315 62.6542 13.3832 63.1069 14.8214 60.8298C16.0168 58.9375 19.022 58.7949 20.4372 60.5638L22.048 62.5769C24.0774 65.1132 28.3154 65.1132 30.3449 62.5769L30.598 62.2602C32.7514 59.569 37.2483 59.569 39.4017 62.2602L39.6549 62.5769C41.6843 65.1132 45.9225 65.1132 47.9519 62.5769Z" stroke="white" stroke-width="4" stroke-linejoin="round"/>
<path d="M7.24282 28.0205C5.53567 26.2471 5.85705 23.9632 5.85705 18.2548C5.85705 12.5464 5.85705 9.69223 7.56421 7.91887C9.27136 6.14551 12.019 6.14551 17.5142 6.14551H52.4857C57.9807 6.14551 60.7285 6.14551 62.4356 7.91887C64.1427 9.69223 64.1427 12.5464 64.1427 18.2548C64.1427 23.9632 64.4621 26.2471 62.755 28.0205" stroke="white" stroke-width="4" stroke-linecap="round"/>
<path d="M34.9999 29.4795H26.2499" stroke="white" stroke-width="4" stroke-linecap="round" stroke-linejoin="round"/>
<path d="M40.833 41.1455H23.333" stroke="white" stroke-width="4" stroke-linecap="round" stroke-linejoin="round"/>
</svg>
