<svg width="70" height="71" viewBox="0 0 70 71" fill="none" xmlns="http://www.w3.org/2000/svg">
<path d="M57.6042 32.3931V29.4764C57.6042 18.477 57.6042 12.9773 54.187 9.56015C50.7699 6.14307 45.2702 6.14307 34.2709 6.14307H31.3545C20.3551 6.14307 14.8554 6.14307 11.4383 9.56012C8.02123 12.9772 8.02117 18.4768 8.02108 29.4762L8.021 41.1431C8.02088 52.1424 8.02085 57.6421 11.4378 61.0592C14.8549 64.4761 20.3548 64.4764 31.3542 64.4764" stroke="white" stroke-width="4" stroke-linecap="round" stroke-linejoin="round"/>
<path d="M21.146 20.7271H44.4792M21.146 35.3104H44.4792" stroke="white" stroke-width="4" stroke-linecap="round"/>
<path d="M38.646 61.0546V64.4764H42.0684C43.2625 64.4764 43.8595 64.4764 44.3962 64.2541C44.9332 64.0316 45.3552 63.6096 46.1996 62.7655L60.2684 48.6955C61.0647 47.8992 61.4628 47.5011 61.6757 47.0718C62.0808 46.2545 62.0808 45.2952 61.6757 44.478C61.4628 44.0484 61.0647 43.6502 60.2684 42.854C59.4719 42.0577 59.0737 41.6596 58.6441 41.4467C57.8269 41.0419 56.8673 41.0419 56.05 41.4467C55.6207 41.6596 55.2223 42.0577 54.426 42.854L40.3572 56.924C39.5128 57.7681 39.0908 58.1901 38.8685 58.7268C38.646 59.2637 38.646 59.8605 38.646 61.0546Z" stroke="white" stroke-width="4" stroke-linejoin="round"/>
</svg>
