<svg width="70" height="71" viewBox="0 0 70 71" fill="none" xmlns="http://www.w3.org/2000/svg">
<path d="M32.1537 64.6021C44.696 64.6021 55.189 55.8293 57.8318 44.0853C58.3731 41.68 58.6438 40.4771 57.7656 39.3796C56.8877 38.2821 55.4667 38.2821 52.6249 38.2821H32.1537M32.1537 64.6021C17.6176 64.6021 5.83374 52.8181 5.83374 38.2821C5.83374 25.7399 14.6065 15.2467 26.3505 12.604C28.7559 12.0627 29.9587 11.792 31.0562 12.6701C32.1537 13.5481 32.1537 14.9691 32.1537 17.811V38.2821M32.1537 64.6021V38.2821" stroke="white" stroke-width="4" stroke-linejoin="round"/>
<path d="M62.8665 20.9286C60.4644 14.831 55.604 9.97086 49.5064 7.56875C46.3121 6.3103 44.7149 5.68105 42.7742 7.00227C40.8337 8.32349 40.8337 10.4845 40.8337 14.8065V20.7245C40.8337 24.9091 40.8337 27.0014 42.1337 28.3014C43.4337 29.6014 45.5261 29.6014 49.7106 29.6014H55.6285C59.9507 29.6014 62.1117 29.6014 63.433 27.6608C64.7542 25.7203 64.1248 24.1231 62.8665 20.9286Z" stroke="white" stroke-width="4" stroke-linejoin="round"/>
</svg>
