<svg width="70" height="71" viewBox="0 0 70 71" fill="none" xmlns="http://www.w3.org/2000/svg">
<path d="M23.3273 47.1014H34.9938M23.3273 32.5181H46.6605" stroke="white" stroke-width="4" stroke-linecap="round"/>
<path d="M21.8745 10.6431C17.3367 10.7792 14.6313 11.2843 12.7592 13.158C10.1964 15.7232 10.1964 19.8519 10.1964 28.1091V47.0851C10.1964 55.3424 10.1964 59.471 12.7592 62.0362C15.322 64.6014 19.4469 64.6014 27.6964 64.6014H42.2798C50.5293 64.6014 54.654 64.6014 57.2169 62.0362C59.7798 59.471 59.7798 55.3424 59.7798 47.0851V28.1091C59.7798 19.8519 59.7798 15.7232 57.2169 13.158C55.345 11.2843 52.6395 10.7792 48.1017 10.6431" stroke="white" stroke-width="4"/>
<path d="M21.8633 11.3722C21.8633 8.55327 24.1485 6.26807 26.9674 6.26807H43.0091C45.8281 6.26807 48.1133 8.55327 48.1133 11.3722C48.1133 14.1912 45.8281 16.4764 43.0091 16.4764H26.9674C24.1485 16.4764 21.8633 14.1912 21.8633 11.3722Z" stroke="white" stroke-width="4" stroke-linejoin="round"/>
</svg>
