<svg width="68" height="65" viewBox="0 0 68 65" fill="none" xmlns="http://www.w3.org/2000/svg">
<path d="M12.0423 44.4259C8.07102 46.7535 -2.34144 51.5065 4.00046 57.4541C7.09842 60.3593 10.5487 62.4372 14.8867 62.4372H39.6396C43.9776 62.4372 47.428 60.3593 50.5259 57.4541C56.8679 51.5065 46.4553 46.7535 42.4839 44.4259C33.1713 38.9674 21.3549 38.9674 12.0423 44.4259Z" stroke="white" stroke-width="4" stroke-linecap="round" stroke-linejoin="round"/>
<path d="M39.8948 18.2268C39.8948 25.2031 34.2393 30.8584 27.2632 30.8584C20.2869 30.8584 14.6316 25.2031 14.6316 18.2268C14.6316 11.2506 20.2869 5.59521 27.2632 5.59521C34.2393 5.59521 39.8948 11.2506 39.8948 18.2268Z" stroke="white" stroke-width="4"/>
<path d="M57.2634 18.6781V21.3849V18.6781ZM57.2634 18.6781C54.9802 18.6781 52.9687 17.4819 51.7889 15.6656L57.2634 18.6781ZM57.2634 18.6781C59.5466 18.6781 61.5581 17.4819 62.7379 15.6656L57.2634 18.6781ZM57.2634 5.14426C59.5466 5.14426 61.5585 6.34066 62.7379 8.15724L57.2634 5.14426ZM57.2634 5.14426C54.9802 5.14426 52.9683 6.34066 51.7889 8.15724L57.2634 5.14426ZM57.2634 5.14426V2.4375V5.14426ZM65.1581 6.49764L62.7379 8.15724L65.1581 6.49764ZM49.3696 17.3248L51.7889 15.6656L49.3696 17.3248ZM49.3687 6.49764L51.7889 8.15724L49.3687 6.49764ZM65.1572 17.3248L62.7379 15.6656L65.1572 17.3248ZM62.7379 8.15724C63.4355 9.23144 63.8422 10.5224 63.8422 11.9112C63.8422 13.3001 63.4355 14.5913 62.7379 15.6656M51.7889 8.15724C51.0913 9.23144 50.6845 10.5224 50.6845 11.9112C50.6845 13.3001 51.0913 14.5913 51.7889 15.6656" fill="url(#paint0_linear_255_1407)"/>
<path d="M57.2634 18.6781V21.3849M57.2634 18.6781C54.9802 18.6781 52.9687 17.4819 51.7889 15.6656M57.2634 18.6781C59.5466 18.6781 61.5581 17.4819 62.7379 15.6656M51.7889 15.6656L49.3696 17.3248M51.7889 15.6656C51.0913 14.5913 50.6845 13.3001 50.6845 11.9112C50.6845 10.5224 51.0913 9.23144 51.7889 8.15724M62.7379 15.6656L65.1572 17.3248M62.7379 15.6656C63.4355 14.5913 63.8422 13.3001 63.8422 11.9112C63.8422 10.5224 63.4355 9.23144 62.7379 8.15724M57.2634 5.14426C59.5466 5.14426 61.5585 6.34066 62.7379 8.15724M57.2634 5.14426C54.9802 5.14426 52.9683 6.34066 51.7889 8.15724M57.2634 5.14426V2.4375M62.7379 8.15724L65.1581 6.49764M51.7889 8.15724L49.3687 6.49764" stroke="url(#paint1_linear_255_1407)" stroke-width="4" stroke-linecap="round"/>
<defs>
<linearGradient id="paint0_linear_255_1407" x1="57.2634" y1="17.8158" x2="57.2634" y2="35.6612" gradientUnits="userSpaceOnUse">
<stop stop-color="#F3F5F9"/>
<stop offset="1" stop-color="#8F9193"/>
</linearGradient>
<linearGradient id="paint1_linear_255_1407" x1="57.2634" y1="17.8158" x2="57.2634" y2="35.6612" gradientUnits="userSpaceOnUse">
<stop stop-color="#F3F5F9"/>
<stop offset="1" stop-color="#8F9193"/>
</linearGradient>
</defs>
</svg>
