<svg width="70" height="71" viewBox="0 0 70 71" fill="none" xmlns="http://www.w3.org/2000/svg">
<path d="M60.5908 52.8125C62.7763 52.8125 64.5146 51.4373 66.0753 49.514C69.2705 45.5774 64.0246 42.4315 62.0238 40.8909C59.99 39.3247 57.7191 38.4374 55.4167 38.2292M52.5 32.3958C56.527 32.3958 59.7917 29.1312 59.7917 25.1042C59.7917 21.0771 56.527 17.8125 52.5 17.8125" stroke="white" stroke-width="4" stroke-linecap="round"/>
<path d="M9.40914 52.8125C7.22365 52.8125 5.48538 51.4373 3.92458 49.514C0.729513 45.5774 5.97538 42.4315 7.97612 40.8909C10.01 39.3247 12.2809 38.4374 14.5834 38.2292M16.0418 32.3958C12.0147 32.3958 8.75009 29.1312 8.75009 25.1042C8.75009 21.0771 12.0147 17.8125 16.0418 17.8125" stroke="white" stroke-width="4" stroke-linecap="round"/>
<path d="M23.5778 44.3865C20.5976 46.2293 12.7838 49.992 17.543 54.7004C19.8678 57.0005 22.457 58.6455 25.7123 58.6455H44.288C47.5433 58.6455 50.1324 57.0005 52.4573 54.7004C57.2164 49.992 49.4026 46.2293 46.4224 44.3865C39.4338 40.0652 30.5662 40.0652 23.5778 44.3865Z" stroke="white" stroke-width="4" stroke-linecap="round" stroke-linejoin="round"/>
<path d="M45.2085 22.1878C45.2085 27.8257 40.6381 32.3962 35.0001 32.3962C29.3622 32.3962 24.7917 27.8257 24.7917 22.1878C24.7917 16.5499 29.3622 11.9795 35.0001 11.9795C40.6381 11.9795 45.2085 16.5499 45.2085 22.1878Z" stroke="white" stroke-width="4"/>
</svg>
